<svg aria-hidden="true" style="position: absolute; width: 0; height: 0; overflow: hidden;" version="1.1" xmlns="http://www.w3.org/2000/svg" xmlns:xlink="http://www.w3.org/1999/xlink">
<defs>
<symbol id="icon-cart" viewBox="0 0 40 32">
<title>icon-cart</title>
<path d="M40.027 7.082l-5.659 12.551c-0.282 0.627-0.884 1.064-1.592 1.104l-0.005 0-16.248 1.084 0.936 2.686h17.709c2.080 0 3.765 1.686 3.765 3.765s-1.686 3.765-3.765 3.765c-2.079 0-3.764-1.684-3.765-3.763v-0h-17.572c-0.001 2.079-1.687 3.763-3.765 3.763s-3.765-1.686-3.765-3.765 1.686-3.765 3.765-3.765h3.4l-7.257-20.71h-4.313c-1.040 0-1.883-0.843-1.883-1.883s0.843-1.883 1.883-1.883v0h5.659c0.817 0.006 1.51 0.525 1.776 1.251l0.004 0.013 1.095 3.133h27.864c0.003 0 0.006-0 0.009-0 1.040 0 1.884 0.843 1.885 1.883v0c-0.006 0.279-0.064 0.542-0.165 0.783l0.005-0.014zM11.752 8.194l3.469 9.943 16.18-1.079 3.994-8.863h-23.642z"></path>
</symbol>
<symbol id="icon-search" viewBox="0 0 32 32">
<title>icon-search</title>
<path d="M31.111 26.862c0.511 0.537 0.825 1.265 0.825 2.067 0 1.657-1.344 3.001-3.001 3.001-0.804 0-1.535-0.316-2.074-0.832l0.001 0.001-8.769-8.78c-1.753 1.056-3.87 1.68-6.132 1.68-6.645 0-12.032-5.387-12.032-12.032s5.387-12.032 12.032-12.032c6.645 0 12.032 5.387 12.032 12.032 0 2.255-0.62 4.365-1.7 6.169l0.030-0.055 8.788 8.78zM12.011 3.016c-4.963 0-8.987 4.024-8.987 8.987s4.024 8.987 8.987 8.987c4.963 0 8.987-4.024 8.987-8.987v0c-0.003-4.962-4.025-8.984-8.987-8.987h-0z"></path>
</symbol>
</defs>
</svg>
